{"title":"Justice League vs. Teen Titans (2016).1080P WEB-DL DD5 1 H 264","uid":14085873,"size":3462322300,"categoryP":"video","categoryS":"hd___movies","magnet":"?xt=urn:btih:4ddaa195574fced4f9e212b53ba58fe9d588e07f&amp;dn=Justice+League+vs.+Teen+Titans+%282016%29.1080P+WEB-DL+DD5+1+H+264&amp;tr=udp%3A%2F%2Ftracker.leechers-paradise.org%3A6969&amp;tr=udp%3A%2F%2Fzer0day.ch%3A1337&amp;tr=udp%3A%2F%2Fopen.demonii.com%3A1337&amp;tr=udp%3A%2F%2Ftracker.coppersurfer.tk%3A6969&amp;tr=udp%3A%2F%2Fexodus.desync.com%3A6969","seeders":1,"leechers":0,"uploader":"jmanwf","files":1,"time":1459262171,"description":"Description\r\nPlot Summary\r\nFrustrated and disillusioned about his work alongside the Justice League, Robin is forced into a new position with a younger super team, the Teen Titans. Readily welcomed aboard, he is immediately intrigued by the mysterious Raven and the unnatural force that looms over them - her father Trigon - a deceptive being powerful enough to destroy Metropolis by pitting the mighty Justice League against the Teen Titans. With loyalties on the line and lives in the balance, witness the super hero showdown that pits Superman, Batman, Wonder Woman and Cyborg against the likes of Beast Boy, Starfire, Blue Beetle and Nightwing. Only true teamwork will end the threat in this all-new DC Universe adventure!\r\n\r\n\r\n\r\nVideo\r\nID : 2\r\nFormat : AVC\r\nFormat/Info : Advanced Video Codec\r\nFormat profile :   \r\nFormat settings, CABAC : Yes\r\nFormat settings, ReFrames : 4 frames\r\nCodec ID : V_MPEG4/ISO/AVC\r\nDuration : 1h 19mn\r\nBit rate : 5 063 Kbps\r\nWidth : 1 916 pixels\r\nHeight : 1 076 pixels\r\nDisplay aspect ratio : 16:9\r\nFrame rate mode : Constant\r\nFrame rate : 23.976 (23976/1000) fps\r\nColor space : YUV\r\nChroma subsampling : 4:2:0\r\nBit depth : 8 bits\r\nScan type : Progressive\r\nBits/(Pixel*Frame) : 0.102\r\nStream size : 2.80 GiB (87%)\r\nLanguage : English\r\nDefault : Yes\r\nForced : No\r\nColor range : Limited\r\nColor primaries : BT.709\r\nTransfer characteristics : BT.709\r\nMatrix coefficients : BT.709\r\n\r\nAudio #1\r\nID : 1\r\nFormat : AAC\r\nFormat/Info : Advanced Audio Codec\r\nFormat profile : LC\r\nCodec ID : A_AAC\r\nDuration : 1h 19mn\r\nBit rate : 126 Kbps\r\nChannel(s) : 2 channels\r\nChannel positions : Front: L R\r\nSampling rate : 48.0 KHz\r\nFrame rate : 46.875 fps (1024 spf)\r\nCompression mode : Lossy\r\nStream size : 71.5 MiB (2%)\r\nLanguage : English\r\nDefault : Yes\r\nForced : No\r\n\r\nAudio #2\r\nID : 3\r\nFormat : AC-3\r\nFormat/Info : Audio Coding 3\r\nMode extension : CM (complete main)\r\nFormat settings, Endianness : Big\r\nCodec ID : A_AC3\r\nDuration : 1h 19mn\r\nBit rate mode : Constant\r\nBit rate : 384 Kbps\r\nChannel(s) : 6 channels\r\nChannel positions : Front: L C R, Side: L R, LFE\r\nSampling rate : 48.0 KHz\r\nFrame rate : 31.250 fps (1536 spf)\r\nCompression mode : Lossy\r\nStream size : 217 MiB (7%)\r\nLanguage : English\r\nDefault : No\r\nForced : No\r\n\r\nAudio #3\r\nID : 4\r\nFormat : AAC\r\nFormat/Info : Advanced Audio Codec\r\nFormat profile : LC\r\nCodec ID : A_AAC\r\nDuration : 1h 19mn\r\nBit rate : 126 Kbps\r\nChannel(s) : 2 channels\r\nChannel positions : Front: L R\r\nSampling rate : 48.0 KHz\r\nFrame rate : 46.875 fps (1024 spf)\r\nCompression mode : Lossy\r\nStream size : 71.1 MiB (2%)\r\nLanguage : French\r\nDefault : No\r\nForced : No\r\n\r\nAudio #4\r\nID : 5\r\nFormat : AAC\r\nFormat/Info : Advanced Audio Codec\r\nFormat profile : LC\r\nCodec ID : A_AAC\r\nDuration : 1h 19mn\r\nBit rate : 126 Kbps\r\nChannel(s) : 2 channels\r\nChannel positions : Front: L R\r\nSampling rate : 48.0 KHz\r\nFrame rate : 46.875 fps (1024 spf)\r\nCompression mode : Lossy\r\nStream size : 71.2 MiB (2%)\r\nLanguage : Spanish\r\nDefault : No\r\nForced : No\r\n\r\nText\r\nID : 6\r\nFormat : UTF-8\r\nCodec ID : S_TEXT/UTF8\r\nCodec ID/Info : UTF-8 Plain Text\r\nDuration : 1h 16mn\r\nBit rate : 66 bps\r\nCount of elements : 1066\r\nStream size : 37.3 KiB (0%)\r\nLanguage : English\r\nDefault : Yes\r\nForced :\r\n\r\n\r\n\r\n \nhttp://s14.postimg.org/g6r66n44x/image.jpg\r\n\r\n\r\n \nhttp://s14.postimg.org/4voii9x9t/image.jpg\r\n\r\n\r\n\r\n \nhttp://www.imdb.com/title/tt5091548/","torrent":{"xt":"urn:btih:4ddaa195574fced4f9e212b53ba58fe9d588e07f","amp;dn":"Justice+League+vs.+Teen+Titans+%282016%29.1080P+WEB-DL+DD5+1+H+264","amp;tr":["udp%3A%2F%2Ftracker.leechers-paradise.org%3A6969","udp%3A%2F%2Fzer0day.ch%3A1337","udp%3A%2F%2Fopen.demonii.com%3A1337","udp%3A%2F%2Ftracker.coppersurfer.tk%3A6969","udp%3A%2F%2Fexodus.desync.com%3A6969"],"infoHash":"4ddaa195574fced4f9e212b53ba58fe9d588e07f","infoHashBuffer":{"type":"Buffer","data":[77,218,161,149,87,79,206,212,249,226,18,181,59,165,143,233,213,136,224,127]},"announce":[],"urlList":[]}}